# xmcd
#
# Track frame offsets: 
#        150
#        22995
#        40128
#        63765
#        85223
#        106082
#        124833
#        145708
#
# Disc length: 2166 seconds
#
# Revision: 0
# Processed by: cddbd v1.5.2PL0 Copyright (c) Steve Scherf et al.
# Submitted via: ExactAudioCopyFreeDBPlugin 1.0
#
DISCID=5b087408
DTITLE=k.d. lang - Ingénue-25AE-d2
DYEAR=2017
DGENRE=Vocal
TTITLE0=Save Me
TTITLE1=The Mind of Love
TTITLE2=So It Shall Be
TTITLE3=Miss Chatelaine
TTITLE4=Season of Hollow Soul
TTITLE5=Wash Me Clean
TTITLE6=Constant Craving
TTITLE7=Still Thrives This Love
EXTD=
EXTT0=
EXTT1=
EXTT2=
EXTT3=
EXTT4=
EXTT5=
EXTT6=
EXTT7=
PLAYORDER=
